# File produced by Open Asset Import Library (http://www.assimp.sf.net)
# (assimp v5.0.1937526254)

mtllib test.mtl

# 21 vertex positions
v  0.457199991 -0.457199991 0.774699986
v  -0.457199991 0.457199991 0.774699986
v  -0.457199991 -0.457199991 0.774699986
v  0.457199991 0.457199991 0.774699986
v  0.457199991 0.457199991 0.736599982
v  -0.457199991 -0.457199991 0.736599982
v  -0.457199991 0.457199991 0.736599982
v  0.457199991 -0.457199991 0.736599982
v  0.0207818169 0.0207818169 0.0507999994
v  0.0207818169 -0.0207818169 0.736599982
v  0.0207818169 -0.0207818169 0.0507999994
v  0.0207818169 0.0207818169 0.736599982
v  0.279399991 -0.279399991 -1.40707623e-19
v  0.279399991 0.279399991 -1.4404615e-19
v  -0.0207818169 0.0207818169 0.736599982
v  -0.0207818169 0.0207818169 0.0507999994
v  -0.0207818169 -0.0207818169 0.736599982
v  -0.0207818169 -0.0207818169 0.0507999994
v  0 0 0
v  -0.279399991 0.279399991 1.40707623e-19
v  -0.279399991 -0.279399991 1.4404615e-19

# 0 UV coordinates

# 16 vertex normals
vn 0 0 1
vn -0 -0 -1
vn 1 0 0
vn -1 -0 -0
vn 0.097280398 -0.097280398 0.990491271
vn 0.097280398 0.097280398 0.990491271
vn -0.097280398 -0.097280398 -0.990491271
vn -0.097280398 0.097280398 -0.990491271
vn 0 1 0
vn 0 -1 0
vn -5.09580791e-19 -5.97446465e-21 -1
vn 5.09580791e-19 5.97446465e-21 1
vn -0.097280398 0.097280398 0.990491271
vn 0.097280398 -0.097280398 -0.990491271
vn -0.097280398 -0.097280398 0.990491271
vn 0.097280398 0.097280398 -0.990491271

# Mesh 'visuals' with 8 faces
g visuals
usemtl material_Maple
f  1//1 2//1 3//1
f  2//1 1//1 4//1
f  4//2 1//2 2//2
f  3//2 2//2 1//2
f  5//2 6//2 7//2
f  6//2 5//2 8//2
f  8//1 5//1 6//1
f  7//1 6//1 5//1

# Mesh 'visuals' with 44 faces
g visuals
usemtl material_Blue1
f  9//3 10//3 11//3
f  10//3 9//3 12//3
f  12//4 9//4 10//4
f  11//4 10//4 9//4
f  13//5 9//6 11//5
f  9//6 13//5 14//6
f  14//7 13//8 9//7
f  11//8 9//7 13//8
f  15//9 9//9 16//9
f  9//9 15//9 12//9
f  12//10 15//10 9//10
f  16//10 9//10 15//10
f  10//1 15//1 17//1
f  15//1 10//1 12//1
f  12//2 10//2 15//2
f  17//2 15//2 10//2
f  10//10 18//10 11//10
f  18//10 10//10 17//10
f  17//9 10//9 18//9
f  11//9 18//9 10//9
f  14//11 13//11 19//11
f  19//12 13//12 14//12
f  16//13 14//6 20//13
f  14//6 16//13 9//6
f  9//7 16//14 14//7
f  20//14 14//7 16//14
f  13//5 18//15 21//15
f  18//15 13//5 11//5
f  11//8 13//8 18//16
f  21//16 18//16 13//8
f  15//4 18//4 17//4
f  18//4 15//4 16//4
f  16//3 15//3 18//3
f  17//3 18//3 15//3
f  13//11 21//11 19//11
f  19//12 21//12 13//12
f  14//11 19//11 20//11
f  20//12 19//12 14//12
f  18//15 20//13 21//15
f  20//13 18//15 16//13
f  16//14 18//16 20//14
f  21//16 20//14 18//16
f  19//11 21//11 20//11
f  20//12 21//12 19//12

# Mesh 'visuals' with 16 faces
g visuals
usemtl material_Wood_Floor_Dark
f  4//4 5//4 1//4
f  8//4 1//4 5//4
f  4//10 2//10 5//10
f  7//10 5//10 2//10
f  3//9 1//9 6//9
f  8//9 6//9 1//9
f  7//3 2//3 6//3
f  3//3 6//3 2//3
f  5//3 1//3 8//3
f  1//3 5//3 4//3
f  2//9 5//9 7//9
f  5//9 2//9 4//9
f  1//10 6//10 8//10
f  6//10 1//10 3//10
f  2//4 6//4 3//4
f  6//4 2//4 7//4

